HIERARCHY
ROOT hip
{
	OFFSET 0.000000 0.000000 0.000000 
	CHANNELS 6 Xposition Yposition Zposition Xrotation Zrotation Yrotation
	JOINT abdomen
	{
		OFFSET 0.000000 3.402643 0.000000 
		CHANNELS 3 Xrotation Zrotation Yrotation
		JOINT chest
		{
			OFFSET 0.000000 8.438565 -0.680529 
			CHANNELS 3 Xrotation Zrotation Yrotation
			JOINT neck
			{
				OFFSET 0.000000 10.207942 -0.272212 
				CHANNELS 3 Xrotation Zrotation Yrotation
				JOINT head
				{
					OFFSET 0.000000 3.130431 0.000000 
					CHANNELS 3 Xrotation Zrotation Yrotation
					End Site
					{
						OFFSET 0.000000 3.130435 0.000000 
					}
				}
			}
			JOINT lCollar
			{
				OFFSET 3.470700 6.669187 -0.816635 
				CHANNELS 3 Yrotation Zrotation Xrotation
				JOINT lShldr
				{
					OFFSET 3.198488 0.000000 0.000000 
					CHANNELS 3 Zrotation Yrotation Xrotation
					JOINT lForeArm
					{
						OFFSET 10.139888 0.000000 0.000000 
						CHANNELS 3 Yrotation Zrotation Xrotation
						JOINT lHand
						{
							OFFSET 8.370511 0.000000 0.000000 
							CHANNELS 3 Zrotation Yrotation Xrotation
							End Site
							{
								OFFSET 4.083176 0.000000 0.000000 
							}
						}
					}
				}
			}
			JOINT rCollar
			{
				OFFSET -3.470700 6.669187 -0.816635 
				CHANNELS 3 Yrotation Zrotation Xrotation
				JOINT rShldr
				{
					OFFSET -3.198488 0.000000 0.000000 
					CHANNELS 3 Zrotation Yrotation Xrotation
					JOINT rForeArm
					{
						OFFSET -10.139888 0.000000 0.000000 
						CHANNELS 3 Yrotation Zrotation Xrotation
						JOINT rHand
						{
							OFFSET -8.370511 0.000000 0.000000 
							CHANNELS 3 Zrotation Yrotation Xrotation
							End Site
							{
								OFFSET -4.083176 0.000000 0.000000 
							}
						}
					}
				}
			}
		}
	}
	JOINT lThigh
	{
		OFFSET 5.308129 -1.633274 1.361059 
		CHANNELS 3 Xrotation Zrotation Yrotation
		JOINT lShin
		{
			OFFSET -2.041588 -20.007561 0.000000 
			CHANNELS 3 Xrotation Zrotation Yrotation
			JOINT lFoot
			{
				OFFSET 0.000000 -19.190928 -1.224953 
				CHANNELS 3 Xrotation Yrotation Zrotation
				End Site
				{
					OFFSET 0.000000 -2.449906 4.627600 
				}
			}
		}
	}
	JOINT rThigh
	{
		OFFSET -5.308129 -1.633274 1.361059 
		CHANNELS 3 Xrotation Zrotation Yrotation
		JOINT rShin
		{
			OFFSET 2.041588 -20.007561 0.000000 
			CHANNELS 3 Xrotation Zrotation Yrotation
			JOINT rFoot
			{
				OFFSET 0.000000 -19.190928 -1.224953 
				CHANNELS 3 Xrotation Yrotation Zrotation
				End Site
				{
					OFFSET 0.000000 -2.449906 4.627600 
				}
			}
		}
	}
}
MOTION
Frames: 8
Frame Time: 0.016667
1.001029 44.434677 0.239944 1.508160 -4.305150 -2.262090 -21.710300 3.408830 -1.282570 16.038200 3.115310 -0.196873 20.275578 -5.773180 -5.713586 15.565800 9.337670 -1.477790 2.000000 -2.000000 0.000000 -91.084297 9.374330 171.490997 33.008202 -0.329498 0.074536 0.048557 -0.035261 -149.617004 -2.000000 2.000000 0.000000 85.905701 -3.283300 168.498001 -28.760099 0.334700 0.065783 -0.056771 0.027484 -146.785004 -7.322973 2.583081 1.744943 28.050671 3.183229 2.006748 -17.205717 1.394441 0.651791 -6.694038 5.646484 2.729189 24.918673 -2.853393 -1.896567 -14.944345 -7.245033 -2.401339 
1.007897 44.433781 0.258268 1.468820 -4.217370 -2.325260 -21.689899 3.378840 -1.195790 16.067801 3.057020 -0.151645 20.374313 -5.437868 -5.623574 15.502100 9.493190 -1.427340 2.000000 -2.000000 0.000000 89.511002 170.369995 -7.737730 33.398800 -0.328988 0.075316 0.048034 -0.032856 -148.738007 -2.000000 2.000000 0.000000 85.505997 -3.784530 169.854004 -29.668301 0.333642 0.067674 -0.056996 0.028750 -147.244003 -7.197233 2.444951 1.729023 27.961750 3.184186 1.998289 -17.184483 1.528816 0.693864 -6.705292 5.497980 2.610747 25.006886 -2.855380 -1.895663 -14.992004 -7.046842 -2.353139 
1.014765 44.433002 0.276592 1.429480 -4.119820 -2.398080 -21.669399 3.343190 -1.095740 16.107201 2.998760 -0.115732 20.464334 -5.082929 -5.508625 15.438300 9.648770 -1.378850 2.000000 -2.000000 0.000000 90.106400 170.123993 -6.966820 33.779701 -0.328485 0.076073 0.047549 -0.030443 -147.858994 -2.000000 2.000000 0.000000 85.096397 -4.276000 171.210007 -30.586300 0.332543 0.069569 -0.057232 0.030013 -147.703003 -7.061971 2.298725 1.721701 27.881958 3.187987 1.980667 -17.172888 1.662897 0.713745 -6.677220 5.362763 2.506764 25.111979 -2.883353 -1.900027 -15.092240 -6.857173 -2.279752 
1.005487 44.434799 0.278738 1.439200 -4.080750 -2.358730 -21.757700 3.354910 -1.064170 15.999500 3.027530 -0.094376 20.464380 -5.296830 -5.677475 15.494600 9.560530 -1.454610 2.000000 -2.000000 0.000000 90.936203 169.878006 -6.195920 34.062901 -0.328108 0.076634 0.047010 -0.027511 -146.794998 -2.000000 2.000000 0.000000 -95.625603 -175.018005 -7.433770 -31.572599 0.331328 0.071585 -0.056996 0.028750 -147.244003 -7.055755 2.261004 1.701877 27.852449 3.188308 1.981083 -17.150673 1.687310 0.727147 -6.678726 5.331635 2.535869 25.122166 -2.879894 -1.899182 -15.086775 -6.938704 -2.311885 
0.996207 44.436474 0.280884 1.448920 -4.041680 -2.319380 -21.836300 3.370270 -1.023470 15.891800 3.056270 -0.073128 20.478262 -5.509261 -5.838663 15.541000 9.472660 -1.541930 2.000000 -2.000000 0.000000 91.765900 169.632004 -5.425010 34.336300 -0.327741 0.077173 0.046522 -0.024543 -145.720993 -2.000000 2.000000 0.000000 -96.357498 -174.341003 -6.077950 -32.558899 0.330078 0.073579 -0.056766 0.027457 -146.774994 -7.067148 2.208116 1.653512 27.824005 3.182241 1.989718 -17.138994 1.708531 0.727837 -6.640174 5.287728 2.589083 25.044666 -2.865889 -1.887651 -15.040689 -7.039699 -2.341939 
0.978135 44.436993 0.277702 1.458980 -4.188100 -2.245670 -21.876801 3.431840 -0.998138 15.843000 3.026860 -0.053799 20.486420 -5.025306 -5.692654 15.419200 9.668610 -1.485740 2.000000 -2.000000 0.000000 92.742599 169.856995 -5.483070 33.838200 -0.328407 0.076189 0.046046 -0.021241 -144.529007 -2.000000 2.000000 0.000000 -97.226501 -174.154007 -5.600870 -32.920300 0.329612 0.074304 -0.056242 0.024246 -145.613007 -7.148650 2.391191 1.559808 27.940214 3.194682 1.981589 -17.175690 1.736138 0.732760 -6.574853 5.481669 2.567645 24.897476 -2.864164 -1.889390 -15.011820 -7.097456 -2.370890 
0.960061 44.437634 0.274524 1.469070 -4.344280 -2.162510 -21.917101 3.484310 -0.969225 15.784400 3.007140 -0.035742 20.504034 -4.561289 -5.568249 15.297200 9.855110 -1.430640 2.000000 -2.000000 0.000000 93.719299 170.072006 -5.550930 33.330399 -0.329077 0.075180 0.045635 -0.017903 -143.328003 -2.000000 2.000000 0.000000 -98.105301 -173.966995 -5.132590 -33.291401 0.329128 0.075046 -0.055786 0.021051 -144.460999 -7.202672 2.564126 1.435602 27.999636 3.197743 2.001085 -17.212038 1.758905 0.757431 -6.535256 5.670165 2.524384 24.799582 -2.860844 -1.890043 -15.035142 -7.162391 -2.396231 
0.936945 44.444317 0.270880 1.459330 -4.373590 -2.006260 -21.769899 3.466170 -0.962591 15.980200 2.959300 -0.031374 20.681353 -4.465895 -5.576127 15.448600 9.926350 -1.390340 2.000000 -2.000000 0.000000 94.598900 170.925003 -7.121190 32.178101 -0.330565 0.072868 0.045230 -0.013821 -141.863007 -2.000000 2.000000 0.000000 -98.877197 -174.985001 -6.115480 -31.904600 0.330911 0.072259 -0.055681 0.020238 -144.167999 -7.244092 2.633363 1.388807 28.048098 3.200366 1.991431 -17.226477 1.716650 0.733777 -6.490431 5.762053 2.569580 24.740931 -2.857999 -1.890343 -14.985085 -7.366801 -2.436918 
